          =!HD DESI ROCKER RELEASES!=/=!DK GROUP HD BLURAY RELEAESEES!=

===================================================================================

 Underworld:Evolution(2006)Extended Version720p Bluray Rip In[Hindi-Eng]By !!!dip

===================================================================================

Storyline:

Underworld: Evolution continues the saga of war between the vampires and the Lycans. The film goes back to the beginnings of the ancient feud between the two tribes as Selene, the beautiful vampire heroine, and Michael, the lycan hybrid, try to unlock the secrets of their bloodlines. This will be a modern tale of action, intrigue and forbidden love, which takes them into the battle to end all wars as the immortals must finally face their retribution. Written by Shewolfinlondon 

Cast:

Kate Beckinsale	 ...	Selene
Scott Speedman	 ...	Michael
Tony Curran	 ...	Marcus
Derek Jacobi	 ...	Corvinus (as Sir Derek Jacobi)
Bill Nighy	 ...	Viktor
Steven Mackintosh...	Tanis
Shane Brolly	 ...	Kraven
Brian Steele	 ...	William
Zita Görög	 ...	Amelia (as Zita Gorog)
Scott McElroy	 ...	Soren
John Mann	 ...	Samuel
Michael Sheen	 ...	Lucian
Sophia Myles	 ...	Erika (as Sophia Miles)
Richard Cetrone	 ...	Pierce (as Rich Cetrone)
Mike Mukatis	 ...	Taylor

Directors               :Len Wiseman
Writers                 :Danny McBride (screenplay), Len Wiseman (story)
Stars                   :Kate Beckinsale, Scott Speedman and Bill Nighy
Format                  :Color,MKV,Widescreen
Language                :Hindi-English
Release Date            :20 January 2006 (USA)
Run Time                :1H:42M:02S
Color                   :Color
SUBTITLE                :ENGLISH


Video Specifications:

Format: H.264/MPEG-4 AVC
Bitrate:448 kb/ps
Framerate:23.976 FPS

Release Title/Year/Language...:Underworld - Evolution (2006) Extended Version720p Bluray Rip In[Hindi-Eng]By !!!dip
Genre: Action | Fantasy | Thriller  
Source: Bluray
Bit rate: 1663 Kbps
Width: 1280 pixels
Height: 544 pixels
Display aspect ratio: 2.35:1
Frame rate: 25.000 fps
Original frame rate: 23.976 fps
Color space: YUV
Chroma subsampling: 4:2:0
Bit depth: 8 bits
Scan type: Progressive
Compression mode: Lossy
Bits/(Pixel*Frame): 0.096
Stream size: 1.19 GiB (71%)
Title: !!!dip
Resolution: 1280 x 544 pixels
Team: DK Group HD Bluray Releases/HD DESI ROCKER RELEAESEES


Audio Specifications:


Audio #1
ID                               : 2
Format                           : AC-3
Format/Info                      : Audio Coding 3
Mode extension                   : CM (complete main)
Muxing mode                      : Header stripping
Codec ID                         : A_AC3
Duration                         : 1h 42mn
Bit rate mode                    : Constant
Bit rate                         : 384 Kbps
Channel(s)                       : 6 channels
Channel positions                : Front: L C R, Side: L R, LFE
Sampling rate                    : 48.0 KHz
Bit depth                        : 16 bits
Compression mode                 : Lossy
Stream size                      : 280 MiB (16%)
Language                         : English

Audio #2
ID                               : 3
Format                           : AC-3
Format/Info                      : Audio Coding 3
Mode extension                   : CM (complete main)
Muxing mode                      : Header stripping
Codec ID                         : A_AC3
Duration                         : 1h 42mn
Bit rate mode                    : Constant
Bit rate                         : 128 Kbps
Channel(s)                       : 2 channels
Channel positions                : Front: L R
Sampling rate                    : 48.0 KHz
Bit depth                        : 16 bits
Compression mode                 : Lossy
Stream size                      : 93.4 MiB (5%)
Title                            : !!!dip
Language                         : English

Audio #3
ID                               : 4
Format                           : MPEG Audio
Format version                   : Version 2
Format profile                   : Layer 3
Muxing mode                      : Header stripping
Codec ID                         : A_MPEG/L3
Codec ID/Hint                    : MP3
Duration                         : 1h 42mn
Bit rate mode                    : Constant
Bit rate                         : 128 Kbps
Channel(s)                       : 1 channel
Sampling rate                    : 24.0 KHz
Compression mode                 : Lossy
Delay relative to video          : 2s 0ms
Stream size                      : 93.4 MiB (5%)
Title                            : !!!dip
Writing library                  : LAME3.96.1
Language                         : Hindi


SAMPLE IMAGE:
 
http://www.pix2links.com/images/23968307213895912495.jpg
 
http://www.pix2links.com/images/74807753724050687466.jpg
 
http://www.pix2links.com/images/35999156605583201489.jpg
 
http://www.pix2links.com/images/24471028597883564390.jpg
 
http://www.pix2links.com/images/64144956768566568262.jpg

SAMPLE VIDEO INCLUDED:
 